# xmcd CD database file
#
# Track frame offsets:
#	150
#	37287
#	70263
#	101373
#	121161
#	148254
#	190030
#	218686
#	249028
#
# Disc length: 3672 seconds
#
# Revision: 0
# Processed by: cddbd v1.5.2PL0 Copyright (c) Steve Scherf et al.
# Submitted via: CDex 1.51
#
DISCID=7c0e5609
DTITLE=Evan Christopher - Introduction Live at the Meridien
DYEAR=2007
DGENRE=Jazz
TTITLE0=When I grow too old to dream
TTITLE1=Song d'automne
TTITLE2=Lonely woman - Ramblin
TTITLE3=Prelude to a kiss
TTITLE4=Mamanita
TTITLE5=I got a right to sing the blues
TTITLE6=The entertainer
TTITLE7=In the shade of the old apple tree
TTITLE8=G'wine home
EXTD=YEAR: 2007
EXTT0=
EXTT1=
EXTT2=
EXTT3=
EXTT4=
EXTT5=
EXTT6=
EXTT7=
EXTT8=
PLAYORDER=
